<svg width="37" height="40" viewBox="0 0 37 40" fill="none" xmlns="http://www.w3.org/2000/svg">
<path d="M0 18.1395V40H36.8627V18.1395L18.4314 0L0 18.1395Z" fill="#444444"/>
<path d="M9.47144 21.9609V28.9638C9.47144 29.5372 9.59754 29.9935 9.84975 30.3328C10.114 30.6604 10.5343 30.8242 11.1108 30.8242C11.6872 30.8242 12.1136 30.6604 12.3898 30.3328C12.666 29.9935 12.8041 29.5372 12.8041 28.9638V21.9609H16.7853V28.9638C16.7853 30.1456 16.5331 31.1577 16.0287 32.0002C15.5243 32.8309 14.8338 33.4569 13.9571 33.8781C13.0803 34.2993 12.1016 34.51 11.0207 34.51C9.93982 34.51 8.97905 34.2993 8.13837 33.8781C7.3097 33.4569 6.66118 32.8309 6.1928 32.0002C5.72442 31.1694 5.49023 30.1573 5.49023 28.9638V21.9609H9.47144Z" fill="white"/>
<path d="M26.6348 34.3871L24.2929 31.1577L22.3473 34.3871H17.7896L21.987 27.981L17.6095 21.9609H22.3473L24.5991 25.0675L26.4726 21.9609H31.0303L26.905 28.2442L31.3726 34.3871H26.6348Z" fill="white"/>
</svg>
