<svg width="16" height="32" viewBox="0 0 16 32" fill="none" xmlns="http://www.w3.org/2000/svg">
<path d="M0 0H16V3.2H14.4V25.6C14.4 27.2974 13.7257 28.9252 12.5255 30.1255C11.3253 31.3257 9.69739 32 8 32C6.30261 32 4.67475 31.3257 3.47452 30.1255C2.27428 28.9252 1.6 27.2974 1.6 25.6V3.2H0V0ZM11.2 3.2H4.8V25.6C4.8 26.4487 5.13714 27.2626 5.73726 27.8627C6.33738 28.4629 7.15131 28.8 8 28.8C8.84869 28.8 9.66263 28.4629 10.2627 27.8627C10.8629 27.2626 11.2 26.4487 11.2 25.6V3.2Z" fill="#444444"/>
</svg>
