<svg width="13" height="16" viewBox="0 0 13 16" fill="none" xmlns="http://www.w3.org/2000/svg">
<path d="M13 14.304V16L11.5375 15.064L7.64563 7.864C8.18188 7.696 8.66937 7.424 9.09188 7.064L13 14.304ZM8.9375 4C8.9375 4.63652 8.68069 5.24697 8.22357 5.69706C7.76645 6.14714 7.14647 6.4 6.5 6.4H6.1425L1.4625 15.064L0 16V14.304L4.70437 5.6C3.81062 4.616 3.89187 3.096 4.89937 2.208C5.33812 1.824 5.90688 1.6 6.5 1.6V0C6.71549 0 6.92215 0.0842854 7.07452 0.234315C7.2269 0.384344 7.3125 0.587827 7.3125 0.8V1.744C8.2875 2.08 8.9375 2.984 8.9375 4ZM7.3125 4C7.3125 3.78783 7.2269 3.58434 7.07452 3.43431C6.92215 3.28429 6.71549 3.2 6.5 3.2C6.28451 3.2 6.07785 3.28429 5.92548 3.43431C5.7731 3.58434 5.6875 3.78783 5.6875 4C5.6875 4.21217 5.7731 4.41566 5.92548 4.56569C6.07785 4.71571 6.28451 4.8 6.5 4.8C6.71549 4.8 6.92215 4.71571 7.07452 4.56569C7.2269 4.41566 7.3125 4.21217 7.3125 4Z" fill="#444444"/>
</svg>
